<svg width="10" height="10" viewBox="0 0 10 10" fill="none" xmlns="http://www.w3.org/2000/svg">
<path d="M9 0H0.375C0.167578 0 0 0.167578 0 0.375V9C0 9.20742 0.167578 9.375 0.375 9.375H9C9.20742 9.375 9.375 9.20742 9.375 9V0.375C9.375 0.167578 9.20742 0 9 0ZM6.61055 6.39727C6.66211 6.4582 6.61875 6.55078 6.53906 6.55078H5.84883C5.79375 6.55078 5.74102 6.52617 5.70469 6.48398L4.6875 5.27109L3.67031 6.48398C3.63516 6.52617 3.58242 6.55078 3.52617 6.55078H2.83594C2.75625 6.55078 2.71289 6.4582 2.76445 6.39727L4.19766 4.6875L2.76445 2.97773C2.7529 2.96415 2.74549 2.94754 2.7431 2.92987C2.74071 2.9122 2.74344 2.89422 2.75097 2.87805C2.7585 2.86189 2.7705 2.84823 2.78556 2.83868C2.80062 2.82914 2.81811 2.82412 2.83594 2.82422H3.52617C3.58125 2.82422 3.63398 2.84883 3.67031 2.89102L4.6875 4.10391L5.70469 2.89102C5.73984 2.84883 5.79258 2.82422 5.84883 2.82422H6.53906C6.61875 2.82422 6.66211 2.9168 6.61055 2.97773L5.17734 4.6875L6.61055 6.39727V6.39727Z" fill="black"/>
</svg>
